<svg xmlns="http://www.w3.org/2000/svg" xmlns:xlink="http://www.w3.org/1999/xlink" viewBox="0,0,256,256" width="68px" height="68px" fill-rule="nonzero"><g fill="#ffffff" fill-rule="nonzero" stroke="none" stroke-width="1" stroke-linecap="butt" stroke-linejoin="miter" stroke-miterlimit="10" stroke-dasharray="" stroke-dashoffset="0" font-family="none" font-weight="none" font-size="none" text-anchor="none" style="mix-blend-mode: normal"><g transform="scale(3.76471,3.76471)"><path d="M5.05078,4c-1.81934,0 -3.30078,1.48145 -3.30078,3.30078v43.06836c0,1.81982 1.48145,3.30078 3.30078,3.30078h21.04297v5.60938h-2.25391c-1.30176,0 -2.35937,1.0581 -2.35937,2.35938c0,1.30127 1.05762,2.36133 2.35938,2.36133h13.17969c0.27637,0 0.5,-0.22363 0.5,-0.5c0,-0.27637 -0.22363,-0.5 -0.5,-0.5h-13.17969c-0.75,0 -1.35937,-0.61133 -1.35937,-1.36133c0,-0.75 0.60938,-1.35937 1.35938,-1.35937h2.75391h14.81055h2.75586c0.75,0 1.35938,0.60938 1.35938,1.35938c0,0.75 -0.60937,1.36133 -1.35937,1.36133h-3.14062c-0.27637,0 -0.5,0.22363 -0.5,0.5c0,0.27637 0.22363,0.5 0.5,0.5h3.14063c1.30078,0 2.35938,-1.06006 2.35938,-2.36133c0,-1.30127 -1.05859,-2.35937 -2.35937,-2.35937h-2.25586v-5.60937h21.04492c1.82031,0 3.30078,-1.48096 3.30078,-3.30078v-43.06836c0,-1.81934 -1.48047,-3.30078 -3.30078,-3.30078h-2.19922c-0.27637,0 -0.5,0.22363 -0.5,0.5c0,0.27637 0.22363,0.5 0.5,0.5h2.19922c1.26855,0 2.30078,1.03271 2.30078,2.30078v43.06836c0,1.26855 -1.03223,2.30078 -2.30078,2.30078h-21.52539c-0.00684,-0.00028 -0.01262,-0.00391 -0.01953,-0.00391h-14.81055c-0.00691,0 -0.01269,0.00363 -0.01953,0.00391h-21.52344c-1.26855,0 -2.30078,-1.03223 -2.30078,-2.30078v-43.06836c0,-1.26807 1.03223,-2.30078 2.30078,-2.30078h51.69922c0.27637,0 0.5,-0.22363 0.5,-0.5c0,-0.27637 -0.22363,-0.5 -0.5,-0.5zM6.24805,8c-0.27637,0 -0.5,0.22363 -0.5,0.5v37.94727c0,0.27637 0.22363,0.5 0.5,0.5h55.5c0.27637,0 0.5,-0.22559 0.5,-0.50195v-37.94531c0,-0.27637 -0.22363,-0.5 -0.5,-0.5zM6.74805,9h54.5v36.94727h-5.1875v-24.87695c0,-0.27637 -0.22363,-0.5 -0.5,-0.5c-0.27637,0 -0.5,0.22363 -0.5,0.5v24.87695h-5.75195v-22.26172c0,-0.27637 -0.22363,-0.5 -0.5,-0.5c-0.27637,0 -0.5,0.22363 -0.5,0.5v22.26172h-5.75195v-14.42187c0,-0.27637 -0.22363,-0.5 -0.5,-0.5c-0.27637,0 -0.5,0.22363 -0.5,0.5v14.42188h-5.75391v-17.03516c0,-0.27637 -0.22363,-0.5 -0.5,-0.5c-0.27637,0 -0.5,0.22363 -0.5,0.5v17.03516h-5.75195v-11.80664c0,-0.27637 -0.22363,-0.5 -0.5,-0.5c-0.27637,0 -0.5,0.22363 -0.5,0.5v11.80664h-5.75v-14.42187c0,-0.27637 -0.22363,-0.5 -0.5,-0.5c-0.27637,0 -0.5,0.22363 -0.5,0.5v14.42188h-5.75391v-6.58008c0,-0.27637 -0.22363,-0.5 -0.5,-0.5c-0.27637,0 -0.5,0.22363 -0.5,0.5v6.58008h-7.79883zM10.80859,11.08398c-1.08887,0 -1.97461,0.88574 -1.97461,1.97461v1.08398c0,0.27637 0.22363,0.5 0.5,0.5c0.27637,0 0.5,-0.22363 0.5,-0.5v-1.08398c0,-0.5376 0.4375,-0.97461 0.97461,-0.97461h1.19336c0.27637,0 0.5,-0.22363 0.5,-0.5c0,-0.27637 -0.22363,-0.5 -0.5,-0.5zM47.18359,15c-0.29102,-0.00928 -0.51367,0.19385 -0.53125,0.46875c-0.01758,0.27539 0.19336,0.51221 0.46875,0.5293l4.01367,0.25195l-7.02539,5.69727c-0.56889,-0.50531 -1.28658,-0.80078 -2.05273,-0.80078c-1.06173,0 -2.03769,0.54086 -2.60742,1.41211l-7.87305,-3.47656c0.05655,-0.23001 0.09375,-0.47075 0.09375,-0.73047c0,-1.7168 -1.39648,-3.11328 -3.11328,-3.11328c-1.71582,0 -3.11328,1.39648 -3.11328,3.11328c0,0.55205 0.14041,1.08718 0.40234,1.54883l-8.2207,6.67188c-0.5469,-0.476 -1.25298,-0.77344 -2.0332,-0.77344c-1.7168,0 -3.11328,1.396 -3.11328,3.11328c0,1.7168 1.39648,3.11523 3.11328,3.11523c1.7168,0 3.11328,-1.39844 3.11328,-3.11523c0,-0.57585 -0.16793,-1.10905 -0.44141,-1.57227l8.22461,-6.67383c0.5699,0.50566 1.29599,0.80078 2.06836,0.80078c1.08913,0 2.07875,-0.56711 2.63281,-1.46094l7.86328,3.4707c-0.06605,0.2551 -0.11133,0.51515 -0.11133,0.7832c0,1.71729 1.39844,3.11328 3.11523,3.11328c1.7168,0 3.11328,-1.396 3.11328,-3.11328c0,-0.54659 -0.14517,-1.08232 -0.41406,-1.54883l7.10938,-5.76563l-0.2793,4.12891c-0.01855,0.27539 0.18945,0.51221 0.46484,0.53125c0.01172,0.00049 0.02344,0.00195 0.03516,0.00195c0.26074,0 0.48047,-0.20264 0.49805,-0.4668l0.35547,-5.24414c0.01757,-0.13159 -0.01334,-0.26966 -0.10352,-0.38086c-0.04845,-0.05902 -0.10955,-0.10183 -0.17383,-0.13281c-0.00353,-0.00174 -0.00815,-0.0003 -0.01172,-0.00195c-0.05533,-0.02507 -0.11218,-0.04285 -0.17187,-0.04687c-0.00208,-0.00016 -0.00377,-0.00182 -0.00586,-0.00195zM28.55664,16.23828c1.16602,0 2.11328,0.94775 2.11328,2.11328c0,0.30225 -0.05273,0.56885 -0.16992,0.81445c-0.3291,0.79004 -1.0918,1.30078 -1.94336,1.30078c-0.63872,0 -1.24124,-0.28649 -1.65039,-0.7832l-0.00195,-0.00195c-0.29785,-0.36133 -0.46094,-0.8335 -0.46094,-1.33008c0,-1.16553 0.94824,-2.11328 2.11328,-2.11328zM42.05664,22.14453c0.63281,0 1.23047,0.2876 1.64063,0.78711c0.30566,0.37061 0.47266,0.84229 0.47266,1.32813c0,1.16602 -0.94727,2.11328 -2.11328,2.11328c-1.16504,0 -2.11328,-0.94727 -2.11328,-2.11328c0,-0.29785 0.05957,-0.58789 0.17773,-0.85742c0.33887,-0.76416 1.09961,-1.25781 1.93555,-1.25781zM15.5918,26.79883c1.16504,0 2.11328,0.94727 2.11328,2.11328c0,1.16553 -0.94824,2.11328 -2.11328,2.11328c-1.16602,0 -2.11328,-0.94775 -2.11328,-2.11328c0,-1.16602 0.94726,-2.11328 2.11328,-2.11328zM33.99414,47.73828c-1.1377,0 -2.0625,0.92578 -2.0625,2.0625c0,1.14502 0.9248,2.07617 2.0625,2.07617c1.14453,0 2.07422,-0.93115 2.07422,-2.07617c0,-1.13672 -0.92969,-2.0625 -2.07422,-2.0625zM33.99414,48.73828c0.59277,0 1.07422,0.47705 1.07422,1.0625c0,0.59326 -0.48145,1.07617 -1.07422,1.07617c-0.58594,0 -1.0625,-0.48291 -1.0625,-1.07617c0,-0.58545 0.47656,-1.0625 1.0625,-1.0625zM27.09375,53.66992h13.81055v5.60938h-13.81055z"></path></g></g></svg>