<svg xmlns="http://www.w3.org/2000/svg" xmlns:xlink="http://www.w3.org/1999/xlink" viewBox="0,0,256,256" width="50px" height="50px" fill-rule="nonzero"><g fill="#ffffff" fill-rule="nonzero" stroke="none" stroke-width="1" stroke-linecap="butt" stroke-linejoin="miter" stroke-miterlimit="10" stroke-dasharray="" stroke-dashoffset="0" font-family="none" font-weight="none" font-size="none" text-anchor="none" style="mix-blend-mode: normal"><g transform="scale(5.12,5.12)"><path d="M25,2c-12.68957,0 -23,10.31043 -23,23c0,12.68957 10.31043,23 23,23c12.68957,0 23,-10.31043 23,-23c0,-12.68957 -10.31043,-23 -23,-23zM25,4c11.60843,0 21,9.39157 21,21c0,11.60843 -9.39157,21 -21,21c-11.60843,0 -21,-9.39157 -21,-21c0,-11.60843 9.39157,-21 21,-21zM15.11719,17.08203c-0.717,0 -1.50499,0.21358 -2.20899,0.64258c-3.068,1.869 -5.04839,6.13277 -4.65039,9.38477c0.126,1.033 0.55523,2.16287 1.36523,2.92188c0.546,0.506 1.53427,1.12891 2.69727,1.12891c1.26,0 2.32525,-0.48484 3.28125,-1.08984c0.648,-0.414 1.18753,-0.91669 1.64453,-1.42969c0.321,0.679 0.98864,1.13672 1.68164,1.13672c0.543,0 1.0525,-0.2723 1.4375,-0.7793c0.116,0.468 0.44239,0.7793 1.02539,0.7793c0.426,0 1.33664,-0.42464 2.18164,-1.05664l-0.08594,0.45117c-0.023,0.096 -0.03144,0.19302 -0.02344,0.29102c0.026,0.215 0.17319,0.3125 0.36719,0.3125c0.407,0 1.00009,-0.39014 1.12109,-0.99414l0.18555,-0.85547c0.238,-1.071 1.804,-2.68945 2.25,-2.68945c0.057,0 0.10133,0.03919 0.11133,0.11719c0.033,0.273 -0.49752,1.16838 -0.72852,2.60938c-0.044,0.245 -0.05139,0.49423 -0.02539,0.74023c0.078,0.643 0.4592,1.07031 1.1582,1.07031c0.604,0 1.8935,-0.50862 2.8125,-1.51563c0.069,0.563 0.18819,1.04356 0.36719,1.35156c0.077,0.136 0.2522,0.17383 0.4082,0.17383c0.195,0 0.46586,-0.07642 0.75586,-0.23242c0.698,-0.39 1.61042,-1.2682 2.48242,-2.5332c0.116,0.019 0.21113,0.01953 0.32813,0.01953c0.349,0 0.73956,-0.12366 1.10156,-0.34766c-0.137,0.439 -0.18772,0.88478 -0.13672,1.30078c0.123,1.012 0.99472,1.79297 1.88672,1.79297c0.523,0 1.03492,-0.27277 1.41992,-0.75977c0.117,0.644 0.5303,1.32538 1.5293,1.73437c0.063,0.039 0.14122,0.03906 0.19922,0.03906c0.194,0 0.31292,-0.13502 0.29492,-0.29102c-0.007,-0.06 -0.05948,-0.15738 -0.14648,-0.23437c-0.24,-0.214 -0.49641,-0.58539 -0.56641,-1.15039c-0.033,-0.273 -0.01673,-0.60319 0.07227,-0.99219c0.217,-0.915 0.264,-1.16816 0.25,-1.28516c-0.028,-0.234 -0.19467,-0.33203 -0.38867,-0.33203c-0.408,0 -0.95952,0.40766 -1.10352,0.97266c-0.224,0.856 -0.83323,1.44141 -1.24023,1.44141c-0.504,0 -0.76303,-0.54633 -0.83203,-1.11133c-0.172,-1.401 0.72149,-3.13477 2.02148,-3.13477c0.388,0 0.7938,0.15687 0.8418,0.54687c0.074,0.603 -0.5642,0.46575 -0.5332,0.71875c0.031,0.253 0.46781,0.33203 0.75781,0.33203c0.291,0 1.14053,-0.1945 1.01953,-1.1875c-0.095,-0.779 -0.91719,-1.15039 -1.86719,-1.15039c-1.116,0 -2.0678,0.56756 -2.7168,1.35156c-0.086,0.05 -0.17644,0.13609 -0.27344,0.24609c-0.214,0.254 -0.60147,0.48828 -1.10547,0.48828c-0.058,0 -0.19336,-0.01953 -0.19336,-0.01953c0.328,-0.642 0.56055,-1.30367 0.56055,-1.88867c0,-0.935 -0.5807,-1.40234 -1.2207,-1.40234c-0.814,0 -1.64844,0.72105 -1.64844,2.12305c0,0.837 0.32911,1.51867 0.91211,1.88867c-0.659,1.091 -1.57103,1.98828 -1.70703,1.98828c-0.077,0 -0.09428,-0.07825 -0.11328,-0.15625c-0.097,-0.369 -0.19531,-1.09106 -0.19531,-1.53906c0,-0.798 0.15531,-1.59613 0.44531,-2.45312c0.039,-0.097 0.05859,-0.19544 0.05859,-0.27344c0,-0.233 -0.15514,-0.34961 -0.36914,-0.34961c-0.425,0 -1.0657,0.48519 -1.2207,0.99219c-0.155,0.486 -0.21289,1.1488 -0.21289,1.9668c0,0.152 0.00281,0.30122 0.00781,0.44922c-0.79,1.044 -1.77022,1.41602 -2.07422,1.41602c-0.381,0 -0.45416,-0.31444 -0.41016,-0.52344c0.206,-0.982 0.51697,-2.12381 0.79297,-2.88281c0.129,-0.37 0.18611,-0.69953 0.16211,-0.89453c-0.043,-0.351 -0.29695,-0.52539 -0.62695,-0.52539c-0.776,0 -2.07325,0.81478 -2.90625,1.92578l0.26563,-1.20117c0.025,-0.116 0.03244,-0.21597 0.02344,-0.29297c-0.028,-0.234 -0.17514,-0.33008 -0.36914,-0.33008c-0.951,0 -1.12003,0.48217 -1.20703,0.95117c-0.022,0.113 -0.29748,1.54322 -0.52148,2.69922c-0.712,0.639 -1.48241,1.05273 -1.69141,1.05273c-0.264,0 -0.35042,-0.20737 -0.35742,-0.35937c-0.01,-0.174 0.18347,-1.01848 0.23047,-1.27148c0.025,-0.116 0.03244,-0.21302 0.02344,-0.29102c-0.026,-0.215 -0.17372,-0.3125 -0.38672,-0.3125c-0.409,0 -0.96247,0.38866 -1.10547,0.97266c-0.226,0.857 -0.81175,1.44141 -1.21875,1.44141c-0.504,0 -0.78456,-0.54384 -0.85156,-1.08984c-0.148,-1.209 0.62353,-3.15625 2.01953,-3.15625c0.388,0 0.79184,0.13639 0.83984,0.52539c0.077,0.623 -0.54277,0.46723 -0.50977,0.74023c0.03,0.253 0.46628,0.33008 0.73828,0.33008c0.311,0 1.13853,-0.19497 1.01953,-1.16797c-0.095,-0.78 -0.89719,-1.16992 -1.86719,-1.16992c-2.242,0 -3.74847,2.20494 -3.60547,3.96094c-0.58,0.675 -1.15869,1.08738 -2.17969,1.60937c-0.585,0.292 -1.24133,0.4668 -1.86133,0.4668c-1.861,0 -2.77017,-1.71336 -2.95117,-3.19336c-0.464,-3.797 2.87417,-9.01562 5.20117,-9.01562c0.543,0 1.02719,0.47103 1.11719,1.20703c0.139,1.144 0.11759,1.95436 -1.06641,2.94336c-0.129,0.107 -0.16661,0.28272 -0.09961,0.38672c0.1,0.155 0.41855,0.16975 1.06055,-0.15625c1.259,-0.635 1.71322,-1.615 1.57422,-2.75c-0.154,-1.26 -1.25452,-2.31445 -2.72851,-2.31445zM34.22266,23.4668c0.213,0 0.48438,0.31072 0.48438,1.01172c0,0.371 -0.07689,0.74133 -0.21289,1.11133c-0.349,-0.369 -0.62109,-0.93447 -0.62109,-1.48047c0,-0.292 0.09761,-0.64158 0.34961,-0.64258z"></path></g></g></svg>