<svg xmlns="http://www.w3.org/2000/svg" xmlns:xlink="http://www.w3.org/1999/xlink" viewBox="0,0,256,256" width="64px" height="64px" fill-rule="nonzero"><g fill="none" fill-rule="nonzero" stroke="none" stroke-width="1" stroke-linecap="butt" stroke-linejoin="miter" stroke-miterlimit="10" stroke-dasharray="" stroke-dashoffset="0" font-family="none" font-weight="none" font-size="none" text-anchor="none" style="mix-blend-mode: normal"><g transform="scale(4,4)"><rect x="2.99" y="7" width="50" height="50" rx="4" ry="0" fill="#ffffff"></rect><path d="M48.99,7h-42c-2.20914,0 -4,1.79086 -4,4v8h50v-8c0,-2.20914 -1.79086,-4 -4,-4z" fill="#ffffff"></path><circle cx="46.99" cy="13" r="2" fill="#ffffff"></circle><circle cx="38.99" cy="13" r="2" fill="#ffffff"></circle><rect x="6.99" y="11" width="26" height="4" rx="2" ry="0" fill="#ffffff"></rect><path d="M38.2114,44.0208l-6.3639,2.1213l2.1213,-6.3639l21.92,-21.92c1.17157,-1.17155 3.07103,-1.17155 4.2426,0v0c1.17155,1.17157 1.17155,3.07103 0,4.2426z" fill="#ffffff"></path><path d="M60.1317,17.8578c-1.17157,-1.17155 -3.07103,-1.17155 -4.2426,0l-2.8284,2.8285l4.2426,4.2427l2.8284,-2.8285c0.56263,-0.56261 0.87871,-1.32569 0.87871,-2.12135c0,-0.79566 -0.31608,-1.55874 -0.87871,-2.12135z" fill="#ffffff"></path><path d="M12.99,8h1c0.55228,0 1,-0.44772 1,-1c0,-0.55228 -0.44772,-1 -1,-1h-1c-0.55228,0 -1,0.44772 -1,1c0,0.55228 0.44772,1 1,1z" fill="#333333"></path><path d="M49.99,13c0,-1.65685 -1.34315,-3 -3,-3c-1.65685,0 -3,1.34315 -3,3c0,1.65685 1.34315,3 3,3c1.6561,-0.00182 2.99818,-1.3439 3,-3zM45.99,13c0,-0.55228 0.44772,-1 1,-1c0.55228,0 1,0.44772 1,1c0,0.55228 -0.44772,1 -1,1c-0.55206,-0.00055 -0.99945,-0.44794 -1,-1z" fill="#333333"></path><path d="M41.99,13c0,-1.65685 -1.34315,-3 -3,-3c-1.65685,0 -3,1.34315 -3,3c0,1.65685 1.34315,3 3,3c1.6561,-0.00182 2.99818,-1.3439 3,-3zM37.99,13c0,-0.55228 0.44772,-1 1,-1c0.55228,0 1,0.44772 1,1c0,0.55228 -0.44772,1 -1,1c-0.55206,-0.00055 -0.99945,-0.44794 -1,-1z" fill="#333333"></path><path d="M5.99,13c0.00182,1.6561 1.3439,2.99818 3,3h22c1.65685,0 3,-1.34315 3,-3c0,-1.65685 -1.34315,-3 -3,-3h-22c-1.6561,0.00182 -2.99818,1.3439 -3,3zM31.99,13c-0.0005,0.55208 -0.44792,0.9995 -1,1h-22c-0.55228,0 -1,-0.44772 -1,-1c0,-0.55228 0.44772,-1 1,-1h22c0.55208,0.0005 0.9995,0.44792 1,1z" fill="#333333"></path><path d="M11.99,28h10c0.55228,0 1,-0.44772 1,-1c0,-0.55228 -0.44772,-1 -1,-1h-10c-0.55228,0 -1,0.44772 -1,1c0,0.55228 0.44772,1 1,1z" fill="#333333"></path><path d="M25.99,28h3c0.55228,0 1,-0.44772 1,-1c0,-0.55228 -0.44772,-1 -1,-1h-3c-0.55228,0 -1,0.44772 -1,1c0,0.55228 0.44772,1 1,1z" fill="#333333"></path><path d="M8.99,32h29c0.55228,0 1,-0.44772 1,-1c0,-0.55228 -0.44772,-1 -1,-1h-29c-0.55228,0 -1,0.44772 -1,1c0,0.55228 0.44772,1 1,1z" fill="#333333"></path><path d="M8.99,36h25c0.55228,0 1,-0.44772 1,-1c0,-0.55228 -0.44772,-1 -1,-1h-25c-0.55228,0 -1,0.44772 -1,1c0,0.55228 0.44772,1 1,1z" fill="#333333"></path><path d="M8.99,40h21c0.55228,0 1,-0.44772 1,-1c0,-0.55228 -0.44772,-1 -1,-1h-21c-0.55228,0 -1,0.44772 -1,1c0,0.55228 0.44772,1 1,1z" fill="#333333"></path><path d="M42.99,44h4c0.55228,0 1,-0.44772 1,-1c0,-0.55228 -0.44772,-1 -1,-1h-4c-0.55228,0 -1,0.44772 -1,1c0,0.55228 0.44772,1 1,1z" fill="#333333"></path><path d="M8.99,44h19c0.55228,0 1,-0.44772 1,-1c0,-0.55228 -0.44772,-1 -1,-1h-19c-0.55228,0 -1,0.44772 -1,1c0,0.55228 0.44772,1 1,1z" fill="#333333"></path><path d="M37.99,47c0,0.55228 0.44772,1 1,1h8c0.55228,0 1,-0.44772 1,-1c0,-0.55228 -0.44772,-1 -1,-1h-8c-0.55228,0 -1,0.44772 -1,1z" fill="#333333"></path><path d="M8.99,48h19c0.55228,0 1,-0.44772 1,-1c0,-0.55228 -0.44772,-1 -1,-1h-19c-0.55228,0 -1,0.44772 -1,1c0,0.55228 0.44772,1 1,1z" fill="#333333"></path><path d="M39.99,50h-31c-0.55228,0 -1,0.44772 -1,1c0,0.55228 0.44772,1 1,1h31c0.55228,0 1,-0.44772 1,-1c0,-0.55228 -0.44772,-1 -1,-1z" fill="#333333"></path><path d="M60.8389,17.15c-1.56373,-1.5581 -4.09307,-1.5581 -5.6568,0l-1.1921,1.1928v-7.3428c-0.00325,-2.76008 -2.23992,-4.99675 -5,-5h-31c-0.55228,0 -1,0.44772 -1,1c0,0.55228 0.44772,1 1,1h31c1.6561,0.00182 2.99818,1.3439 3,3v7h-48v-7c0.00182,-1.6561 1.3439,-2.99818 3,-3h3c0.55228,0 1,-0.44772 1,-1c0,-0.55228 -0.44772,-1 -1,-1h-3c-2.76008,0.00325 -4.99675,2.23992 -5,5v42c0.00325,2.76008 2.23992,4.99675 5,5h42c2.76008,-0.00325 4.99675,-2.23992 5,-5v-23.3434l6.8492,-6.849c1.5592,-1.56363 1.55907,-4.09413 -0.0003,-5.6576zM52.2906,28.5276l-0.0133,0.0133l-14.6059,14.6056l-4.2427,1.415l1.4141,-4.2431l18.2172,-18.2184l2.8289,2.8287zM51.99,53c-0.00182,1.6561 -1.3439,2.99818 -3,3h-42c-1.6561,-0.00182 -2.99818,-1.3439 -3,-3v-33h48v0.3428l-18.7283,18.7285c-0.10985,0.10963 -0.19261,0.24338 -0.2417,0.3906l-2.1211,6.3643c-0.10172,0.30499 -0.05061,0.64029 0.13738,0.90111c0.18799,0.26082 0.48991,0.41535 0.81142,0.41529c0.10759,0.00017 0.21448,-0.01733 0.3164,-0.0518l6.3637,-2.122c0.14713,-0.04916 0.28086,-0.13176 0.3907,-0.2413l13.0715,-13.0709zM59.4251,21.3936l-2.1214,2.1213l-2.829,-2.8286l2.1218,-2.1218c0.78123,-0.7811 2.04775,-0.78098 2.82885,0.00025c0.7811,0.78123 0.78098,2.04775 -0.00025,2.82885z" fill="#333333"></path></g></g></svg>