<svg xmlns="http://www.w3.org/2000/svg" xmlns:xlink="http://www.w3.org/1999/xlink" viewBox="0,0,256,256" width="50px" height="50px" fill-rule="nonzero"><g fill="#ffffff" fill-rule="nonzero" stroke="none" stroke-width="1" stroke-linecap="butt" stroke-linejoin="miter" stroke-miterlimit="10" stroke-dasharray="" stroke-dashoffset="0" font-family="none" font-weight="none" font-size="none" text-anchor="none" style="mix-blend-mode: normal"><g transform="scale(5.12,5.12)"><path d="M28.16797,2h-22.16797v46h36v-32.56641zM19.44922,32.01563c0.35156,0 0.75,-0.07422 1.00391,-0.14844l0.20313,1.64844c-0.30078,0.13672 -0.88672,0.24219 -1.61719,0.24219c-2.73437,0 -4.03516,-2.12891 -4.03516,-4.99609c0,-3.80859 2.23828,-5.29297 4.32031,-5.29297c0.73047,0 1.23828,0.13281 1.44531,0.26953l-0.35156,1.64844c-0.23828,-0.10547 -0.50781,-0.19531 -0.96875,-0.19531c-1.17578,0 -2.23828,0.96094 -2.23828,3.46484c0,2.41406 0.96875,3.35938 2.23828,3.35938zM23.30859,33.75781c-0.85547,0 -1.69922,-0.21094 -2.04687,-0.40625l0.30078,-1.69531c0.42969,0.22656 1.16016,0.39063 1.76172,0.39063c0.98828,0 1.46094,-0.48047 1.46094,-1.14062c0,-0.73437 -0.47656,-1.09375 -1.37891,-1.64844c-1.46094,-0.84375 -2.01953,-1.90625 -2.01953,-2.82031c0,-1.62109 1.14453,-2.97266 3.38281,-2.97266c0.69922,0 1.36719,0.17969 1.68359,0.35938l-0.33203,1.69531c-0.30078,-0.17969 -0.76172,-0.34375 -1.36328,-0.34375c-0.89062,0 -1.32031,0.51172 -1.32031,1.05078c0,0.59766 0.31641,0.91406 1.47656,1.57422c1.41406,0.80859 1.9375,1.83203 1.9375,2.89453c0,1.84766 -1.44531,3.0625 -3.54297,3.0625zM29.56641,33.75781c-0.85547,0 -1.69922,-0.21094 -2.04687,-0.40625l0.30078,-1.69531c0.42969,0.22656 1.16016,0.39063 1.76172,0.39063c0.98438,0 1.46094,-0.48047 1.46094,-1.14062c0,-0.73437 -0.47656,-1.09375 -1.38281,-1.64844c-1.46094,-0.84375 -2.01562,-1.90625 -2.01562,-2.82031c0,-1.62109 1.14453,-2.97266 3.38281,-2.97266c0.69922,0 1.36719,0.17969 1.68359,0.35938l-0.33203,1.69531c-0.30078,-0.17969 -0.76172,-0.34375 -1.36719,-0.34375c-0.89062,0 -1.31641,0.51172 -1.31641,1.05078c0,0.59766 0.31641,0.91406 1.47656,1.57422c1.41406,0.80859 1.9375,1.83203 1.9375,2.89453c0,1.84766 -1.44531,3.0625 -3.54297,3.0625zM28.23438,16v-11.79297l11.64844,11.79297z"></path></g></g></svg>