<svg xmlns="http://www.w3.org/2000/svg" xmlns:xlink="http://www.w3.org/1999/xlink" viewBox="0,0,256,256" width="80px" height="80px" fill-rule="nonzero"><g fill="#ffffff" fill-rule="nonzero" stroke="none" stroke-width="1" stroke-linecap="butt" stroke-linejoin="miter" stroke-miterlimit="10" stroke-dasharray="" stroke-dashoffset="0" font-family="none" font-weight="none" font-size="none" text-anchor="none" style="mix-blend-mode: normal"><g transform="scale(3.2,3.2)"><path d="M40,3.00586c-1.76715,0 -3.5342,0.67092 -4.875,2.01172l-30.10742,30.10742c-2.68161,2.68161 -2.68161,7.06839 0,9.75l30.10742,30.10742c1.3408,1.3408 3.11197,2.01758 4.875,2.01758c1.76303,0 3.5342,-0.67678 4.875,-2.01758l30.10742,-30.10742c2.68269,-2.68152 2.68269,-7.06848 0,-9.75l-30.10742,-30.10742c-1.3408,-1.3408 -3.10785,-2.01172 -4.875,-2.01172zM40,4.99609c1.25185,0 2.50374,0.47835 3.46094,1.43555l30.10742,30.10742c1.91531,1.91448 1.91531,5.0074 0,6.92188l-30.10742,30.10742c-0.9572,0.9572 -2.20597,1.43164 -3.46094,1.43164c-1.25497,0 -2.50374,-0.47444 -3.46094,-1.43164l-30.10742,-30.10742c-1.91439,-1.91439 -1.91439,-5.00748 0,-6.92188l30.10742,-30.10742c0.9572,-0.9572 2.20909,-1.43555 3.46094,-1.43555zM52.68164,18.00781c-0.29531,-0.02695 -0.59828,0.078 -0.80078,0.28125c-0.09,0.1 -0.1707,0.21008 -0.2207,0.33008c-0.05,0.12 -0.07031,0.25086 -0.07031,0.38086c0,0.13 0.02031,0.26086 0.07031,0.38086c0.05,0.12 0.1207,0.22908 0.2207,0.33008c0.09,0.09 0.19836,0.15898 0.31836,0.20898c0.12,0.05 0.25062,0.08008 0.39063,0.08008c0.13,0 0.26086,-0.03008 0.38086,-0.08008c0.12,-0.05 0.22836,-0.11898 0.31836,-0.20898c0.19,-0.19 0.30078,-0.44094 0.30078,-0.71094c0,-0.13 -0.03008,-0.26086 -0.08008,-0.38086c-0.05,-0.13 -0.1207,-0.23008 -0.2207,-0.33008c-0.09,-0.09 -0.19836,-0.15898 -0.31836,-0.20898c-0.0925,-0.04 -0.19062,-0.06328 -0.28906,-0.07227zM50.08594,20.49609c-0.255,0 -0.51008,0.09747 -0.70508,0.29297c-0.39,0.39 -0.39,1.03088 0,1.42188c0.19,0.189 0.44899,0.28906 0.70898,0.28906c0.25,0 0.50922,-0.10006 0.69922,-0.28906c0.39,-0.391 0.39,-1.03188 0,-1.42188c-0.195,-0.1955 -0.44813,-0.29297 -0.70312,-0.29297zM47.58594,22.99609c-0.255,0 -0.51008,0.09747 -0.70508,0.29297c-0.39,0.39 -0.39,1.03088 0,1.42188c0.19,0.189 0.44899,0.28906 0.70898,0.28906c0.25,0 0.50922,-0.10006 0.69922,-0.28906c0.39,-0.391 0.39,-1.03188 0,-1.42188c-0.195,-0.1955 -0.44813,-0.29297 -0.70312,-0.29297zM45.08594,25.49609c-0.255,0 -0.51008,0.09747 -0.70508,0.29297c-0.39,0.39 -0.39,1.03088 0,1.42188c0.19,0.189 0.44899,0.28906 0.70898,0.28906c0.25,0 0.50922,-0.10006 0.69922,-0.28906c0.39,-0.391 0.39,-1.03188 0,-1.42188c-0.195,-0.1955 -0.44813,-0.29297 -0.70312,-0.29297zM42.48633,28.00586c-0.09766,0.00969 -0.19461,0.03422 -0.28711,0.07422c-0.12,0.05 -0.22836,0.11898 -0.31836,0.20898c-0.09,0.1 -0.1707,0.20008 -0.2207,0.33008c-0.05,0.12 -0.07031,0.25086 -0.07031,0.38086c0,0.27 0.10102,0.52094 0.29102,0.71094c0.09,0.09 0.19836,0.15898 0.31836,0.20898c0.12,0.05 0.25062,0.08008 0.39063,0.08008c0.13,0 0.26086,-0.03008 0.38086,-0.08008c0.12,-0.05 0.22836,-0.11898 0.31836,-0.20898c0.19,-0.19 0.30078,-0.44094 0.30078,-0.71094c0,-0.13 -0.03008,-0.26086 -0.08008,-0.38086c-0.05,-0.12 -0.1207,-0.23008 -0.2207,-0.33008c-0.21,-0.21 -0.50977,-0.31226 -0.80273,-0.2832zM40,30.00195l-9.99805,9.99805l0.70703,0.70703l9.29102,9.29102l9.99805,-9.99805zM40,32.83008l7.16992,7.16992l-7.16992,7.16992l-7.16992,-7.16992zM37.58594,50.00391c-0.13,0 -0.26172,0.02567 -0.38672,0.07617c-0.12,0.05 -0.22836,0.11898 -0.31836,0.20898c-0.09,0.1 -0.1707,0.21008 -0.2207,0.33008c-0.05,0.12 -0.07031,0.25086 -0.07031,0.38086c0,0.13 0.02031,0.26086 0.07031,0.38086c0.05,0.12 0.1207,0.22908 0.2207,0.33008c0.19,0.189 0.43899,0.28906 0.70898,0.28906c0.26,0 0.51922,-0.10006 0.69922,-0.28906c0.1,-0.101 0.1707,-0.21008 0.2207,-0.33008c0.05,-0.12 0.08008,-0.25086 0.08008,-0.38086c0,-0.13 -0.03008,-0.26086 -0.08008,-0.38086c-0.05,-0.13 -0.1207,-0.23008 -0.2207,-0.33008c-0.09,-0.09 -0.19836,-0.15898 -0.31836,-0.20898c-0.125,-0.0505 -0.25476,-0.07617 -0.38477,-0.07617zM42.41406,50.00391c-0.13,0 -0.25977,0.02567 -0.38477,0.07617c-0.12,0.05 -0.22836,0.11899 -0.31836,0.20898c-0.19,0.189 -0.30078,0.45094 -0.30078,0.71094c0,0.13 0.03008,0.26086 0.08008,0.38086c0.05,0.12 0.1207,0.22908 0.2207,0.33008c0.09,0.09 0.19836,0.15898 0.31836,0.20898c0.12,0.05 0.25086,0.08008 0.38086,0.08008c0.27,0 0.51899,-0.10006 0.70898,-0.28906c0.09,-0.101 0.1707,-0.21008 0.2207,-0.33008c0.05,-0.12 0.07031,-0.25086 0.07031,-0.38086c0,-0.13 -0.02031,-0.26086 -0.07031,-0.38086c-0.05,-0.13 -0.1307,-0.23008 -0.2207,-0.33008c-0.09,-0.09 -0.19836,-0.15898 -0.31836,-0.20898c-0.125,-0.0505 -0.25672,-0.07617 -0.38672,-0.07617zM35.08594,52.49609c-0.255,0 -0.51008,0.09747 -0.70508,0.29297c-0.39,0.39 -0.39,1.03088 0,1.42188c0.19,0.189 0.44899,0.28906 0.70898,0.28906c0.25,0 0.50922,-0.10006 0.69922,-0.28906c0.39,-0.391 0.39,-1.03188 0,-1.42188c-0.195,-0.1955 -0.44812,-0.29297 -0.70312,-0.29297zM44.91406,52.49609c-0.255,0 -0.50812,0.09747 -0.70312,0.29297c-0.39,0.39 -0.39,1.03088 0,1.42188c0.19,0.189 0.44922,0.28906 0.69922,0.28906c0.26,0 0.51899,-0.10006 0.70898,-0.28906c0.39,-0.391 0.39,-1.03188 0,-1.42188c-0.195,-0.1955 -0.45008,-0.29297 -0.70508,-0.29297zM32.58594,54.99609c-0.255,0 -0.51008,0.09747 -0.70508,0.29297c-0.39,0.39 -0.39,1.03088 0,1.42188c0.19,0.189 0.44899,0.28906 0.70898,0.28906c0.25,0 0.50922,-0.10006 0.69922,-0.28906c0.39,-0.391 0.39,-1.03188 0,-1.42188c-0.195,-0.1955 -0.44812,-0.29297 -0.70312,-0.29297zM47.41406,54.99609c-0.255,0 -0.50812,0.09747 -0.70312,0.29297c-0.39,0.39 -0.39,1.03088 0,1.42188c0.19,0.189 0.44922,0.28906 0.69922,0.28906c0.26,0 0.51899,-0.10006 0.70898,-0.28906c0.39,-0.391 0.39,-1.03188 0,-1.42188c-0.195,-0.1955 -0.45008,-0.29297 -0.70508,-0.29297zM30.08594,57.49609c-0.255,0 -0.51008,0.09747 -0.70508,0.29297c-0.39,0.39 -0.39,1.03088 0,1.42188c0.19,0.189 0.44899,0.28906 0.70898,0.28906c0.25,0 0.50922,-0.10006 0.69922,-0.28906c0.39,-0.391 0.39,-1.03188 0,-1.42188c-0.195,-0.1955 -0.44813,-0.29297 -0.70312,-0.29297zM49.91406,57.49609c-0.255,0 -0.50812,0.09747 -0.70312,0.29297c-0.39,0.39 -0.39,1.03088 0,1.42188c0.19,0.189 0.44922,0.28906 0.69922,0.28906c0.26,0 0.51899,-0.10006 0.70898,-0.28906c0.39,-0.391 0.39,-1.03188 0,-1.42188c-0.195,-0.1955 -0.45008,-0.29297 -0.70508,-0.29297zM27.58594,60.00391c-0.13,0 -0.26172,0.02567 -0.38672,0.07617c-0.12,0.05 -0.22836,0.11899 -0.31836,0.20898c-0.19,0.189 -0.29102,0.45094 -0.29102,0.71094c0,0.27 0.10102,0.52094 0.29102,0.71094c0.19,0.189 0.43898,0.28906 0.70898,0.28906c0.26,0 0.51922,-0.10006 0.69922,-0.28906c0.19,-0.19 0.30078,-0.44094 0.30078,-0.71094c0,-0.26 -0.11078,-0.52194 -0.30078,-0.71094c-0.09,-0.09 -0.19836,-0.15898 -0.31836,-0.20898c-0.125,-0.0505 -0.25477,-0.07617 -0.38477,-0.07617zM52.31641,60.00586c-0.09766,0.00969 -0.19461,0.03422 -0.28711,0.07422c-0.12,0.05 -0.22836,0.11898 -0.31836,0.20898c-0.19,0.189 -0.30078,0.45094 -0.30078,0.71094c0,0.27 0.11078,0.52094 0.30078,0.71094c0.19,0.189 0.43898,0.28906 0.70898,0.28906c0.26,0 0.50922,-0.10006 0.69922,-0.28906c0.19,-0.19 0.29102,-0.44094 0.29102,-0.71094c0,-0.26 -0.10102,-0.52194 -0.29102,-0.71094c-0.21,-0.21 -0.50977,-0.31227 -0.80273,-0.2832z"></path></g></g></svg>