<svg xmlns="http://www.w3.org/2000/svg" xmlns:xlink="http://www.w3.org/1999/xlink" viewBox="0,0,256,256" width="50px" height="50px" fill-rule="nonzero"><g fill="#ffffff" fill-rule="nonzero" stroke="none" stroke-width="1" stroke-linecap="butt" stroke-linejoin="miter" stroke-miterlimit="10" stroke-dasharray="" stroke-dashoffset="0" font-family="none" font-weight="none" font-size="none" text-anchor="none" style="mix-blend-mode: normal"><g transform="scale(5.12,5.12)"><path d="M25.16797,5.00586c-0.38609,-0.00897 -0.77344,0.00905 -1.16016,0.05664c-1.03125,0.1269 -2.05381,0.45896 -3.00781,1.00977c-1.26187,0.72855 -2.13239,1.80733 -2.81055,2.99023l-0.11523,-0.06641l-14,24l0.11523,0.06641c-0.68809,1.18051 -1.18945,2.47725 -1.18945,3.9375c0,4.40643 3.59356,8 8,8c2.94618,0 5.42227,-1.68071 6.81055,-4.0625l0.11523,0.06641l7.07422,-12.12695l7.07422,12.12695c2.20429,3.81309 7.11104,5.12631 10.92578,2.92383c3.81603,-2.20322 5.13095,-7.11172 2.92773,-10.92773v-0.00195l-14,-23.99805c-1.44586,-2.50427 -4.05712,-3.93133 -6.75977,-3.99414zM25.13086,6.99609c2.02443,0.04312 3.97325,1.11392 5.06445,3.00391l0.00195,0.00195v0.00195l14,24c1.6596,2.87929 0.6814,6.52938 -2.19727,8.19141c-2.87998,1.66279 -6.53253,0.68466 -8.19531,-2.19531l-0.00195,-0.00195l-13.99805,-23.99805v-0.00195l-0.00195,-0.00195c-1.65959,-2.87929 -0.6814,-6.52938 2.19727,-8.19141c0.72,-0.4157 1.48825,-0.6666 2.26172,-0.76367c0.29005,-0.0364 0.57994,-0.05108 0.86914,-0.04492zM17.21289,14.44141c0.16008,0.87388 0.39081,1.74703 0.85938,2.55859v0.00195l5.76953,9.89063l-5.11328,8.76563c-0.66279,-3.74583 -3.79741,-6.6582 -7.72852,-6.6582c-0.91541,0 -1.76367,0.23819 -2.58398,0.52344zM11,31c3.32556,0 6,2.67445 6,6c0,3.32555 -2.67444,6 -6,6c-3.32556,0 -6,-2.67445 -6,-6c0,-3.32555 2.67444,-6 6,-6z"></path></g></g></svg>