<svg xmlns="http://www.w3.org/2000/svg" xmlns:xlink="http://www.w3.org/1999/xlink" viewBox="0,0,256,256" width="50px" height="50px" fill-rule="nonzero"><g fill="#ffffff" fill-rule="nonzero" stroke="none" stroke-width="1" stroke-linecap="butt" stroke-linejoin="miter" stroke-miterlimit="10" stroke-dasharray="" stroke-dashoffset="0" font-family="none" font-weight="none" font-size="none" text-anchor="none" style="mix-blend-mode: normal"><g transform="scale(5.12,5.12)"><path d="M35,3c-2.19733,0 -4,1.80267 -4,4v10h-10c-2.19733,0 -4,1.80267 -4,4v10h-10c-2.19733,0 -4,1.80267 -4,4v8c0,2.19733 1.80267,4 4,4h24h2h10c2.19733,0 4,-1.80267 4,-4v-36c0,-2.19733 -1.80267,-4 -4,-4zM35,5h8c0.76217,0 1.40801,0.41686 1.74609,1.0332c-0.43945,0.11536 -0.7459,0.51246 -0.74609,0.9668c0,0.55228 0.44772,1 1,1v4c-0.55228,0 -1,0.44772 -1,1c0,0.55228 0.44772,1 1,1v5c-0.55228,0 -1,0.44772 -1,1c0,0.55228 0.44772,1 1,1v4c-0.55228,0 -1,0.44772 -1,1c0,0.55228 0.44772,1 1,1v3c-0.55228,0 -1,0.44772 -1,1c0,0.55228 0.44772,1 1,1v4c-0.55228,0 -1,0.44772 -1,1c0,0.55228 0.44772,1 1,1v4c-0.55228,0 -1,0.44772 -1,1c0.0002,0.45434 0.30665,0.85144 0.74609,0.9668c-0.33809,0.61635 -0.98392,1.0332 -1.74609,1.0332h-10v-1c0.55228,0 1,-0.44772 1,-1c0,-0.55228 -0.44772,-1 -1,-1v-4c0.55228,0 1,-0.44772 1,-1c0,-0.55228 -0.44772,-1 -1,-1v-4c0.55228,0 1,-0.44772 1,-1c0,-0.55228 -0.44772,-1 -1,-1v-4c0.55228,0 1,-0.44772 1,-1c0,-0.55228 -0.44772,-1 -1,-1v-4c0.55228,0 1,-0.44772 1,-1c0.00005,-0.54699 -0.43939,-0.99252 -0.98633,-1c-0.00036,-0.05301 -0.00493,-0.10591 -0.01367,-0.1582v-3.8418c0.55228,0 1,-0.44772 1,-1c0,-0.55228 -0.44772,-1 -1,-1v-4c0.55228,0 1,-0.44772 1,-1c-0.0002,-0.45434 -0.30665,-0.85144 -0.74609,-0.9668c0.33809,-0.61635 0.98392,-1.0332 1.74609,-1.0332zM39,6c-0.55228,0 -1,0.44772 -1,1c0,0.55228 0.44772,1 1,1c0.55228,0 1,-0.44772 1,-1c0,-0.55228 -0.44772,-1 -1,-1zM36,9c-0.55228,0 -1,0.44772 -1,1c0,0.55228 0.44772,1 1,1c0.55228,0 1,-0.44772 1,-1c0,-0.55228 -0.44772,-1 -1,-1zM42,9c-0.55228,0 -1,0.44772 -1,1c0,0.55228 0.44772,1 1,1c0.55228,0 1,-0.44772 1,-1c0,-0.55228 -0.44772,-1 -1,-1zM39,12c-0.55228,0 -1,0.44772 -1,1c0,0.55228 0.44772,1 1,1c0.55228,0 1,-0.44772 1,-1c0,-0.55228 -0.44772,-1 -1,-1zM36,15c-0.55228,0 -1,0.44772 -1,1c0,0.55228 0.44772,1 1,1c0.55228,0 1,-0.44772 1,-1c0,-0.55228 -0.44772,-1 -1,-1zM42,15c-0.55228,0 -1,0.44772 -1,1c0,0.55228 0.44772,1 1,1c0.55228,0 1,-0.44772 1,-1c0,-0.55228 -0.44772,-1 -1,-1zM39,18c-0.55228,0 -1,0.44772 -1,1c0,0.55228 0.44772,1 1,1c0.55228,0 1,-0.44772 1,-1c0,-0.55228 -0.44772,-1 -1,-1zM21,19h10v26h-24c-1.11667,0 -2,-0.88333 -2,-2v-8c0,-1.11667 0.88333,-2 2,-2h11c0.55226,-0.00006 0.99994,-0.44774 1,-1v-11c0,-1.11667 0.88333,-2 2,-2zM36,21c-0.55228,0 -1,0.44772 -1,1c0,0.55228 0.44772,1 1,1c0.55228,0 1,-0.44772 1,-1c0,-0.55228 -0.44772,-1 -1,-1zM42,21c-0.55228,0 -1,0.44772 -1,1c0,0.55228 0.44772,1 1,1c0.55228,0 1,-0.44772 1,-1c0,-0.55228 -0.44772,-1 -1,-1zM39,24c-0.55228,0 -1,0.44772 -1,1c0,0.55228 0.44772,1 1,1c0.55228,0 1,-0.44772 1,-1c0,-0.55228 -0.44772,-1 -1,-1zM36,27c-0.55228,0 -1,0.44772 -1,1c0,0.55228 0.44772,1 1,1c0.55228,0 1,-0.44772 1,-1c0,-0.55228 -0.44772,-1 -1,-1zM42,27c-0.55228,0 -1,0.44772 -1,1c0,0.55228 0.44772,1 1,1c0.55228,0 1,-0.44772 1,-1c0,-0.55228 -0.44772,-1 -1,-1zM39,30c-0.55228,0 -1,0.44772 -1,1c0,0.55228 0.44772,1 1,1c0.55228,0 1,-0.44772 1,-1c0,-0.55228 -0.44772,-1 -1,-1zM36,33c-0.55228,0 -1,0.44772 -1,1c0,0.55228 0.44772,1 1,1c0.55228,0 1,-0.44772 1,-1c0,-0.55228 -0.44772,-1 -1,-1zM42,33c-0.55228,0 -1,0.44772 -1,1c0,0.55228 0.44772,1 1,1c0.55228,0 1,-0.44772 1,-1c0,-0.55228 -0.44772,-1 -1,-1zM39,36c-0.55228,0 -1,0.44772 -1,1c0,0.55228 0.44772,1 1,1c0.55228,0 1,-0.44772 1,-1c0,-0.55228 -0.44772,-1 -1,-1zM36,39c-0.55228,0 -1,0.44772 -1,1c0,0.55228 0.44772,1 1,1c0.55228,0 1,-0.44772 1,-1c0,-0.55228 -0.44772,-1 -1,-1zM42,39c-0.55228,0 -1,0.44772 -1,1c0,0.55228 0.44772,1 1,1c0.55228,0 1,-0.44772 1,-1c0,-0.55228 -0.44772,-1 -1,-1zM39,42c-0.55228,0 -1,0.44772 -1,1c0,0.55228 0.44772,1 1,1c0.55228,0 1,-0.44772 1,-1c0,-0.55228 -0.44772,-1 -1,-1z"></path></g></g></svg>