<svg xmlns="http://www.w3.org/2000/svg" xmlns:xlink="http://www.w3.org/1999/xlink" viewBox="0,0,256,256" width="50px" height="50px" fill-rule="nonzero"><g fill="#ffffff" fill-rule="nonzero" stroke="none" stroke-width="1" stroke-linecap="butt" stroke-linejoin="miter" stroke-miterlimit="10" stroke-dasharray="" stroke-dashoffset="0" font-family="none" font-weight="none" font-size="none" text-anchor="none" style="mix-blend-mode: normal"><g transform="scale(5.12,5.12)"><path d="M6,0v50h38v-35.40234l-14.59766,-14.59766zM29,2.39844l12.59766,12.60156h-12.59766zM10.51563,24.54297h1.82031v4.74219h2.71875v-4.74219h1.82031v11.45703h-1.82031v-5.04687h-2.71875v5.04688h-1.82031zM17.92578,24.54297h5.93359v1.66406h-2.05859v9.79297h-1.81641v-9.79297h-2.05859zM25.33984,24.54297h1.92188l1.10156,4.64063c0.35938,1.48047 0.64844,2.6875 0.87109,3.97656h0.03125c0.20313,-1.28906 0.45703,-2.47656 0.79688,-3.97656l1.07422,-4.64062h1.95313l0.67969,11.45703h-1.64453l-0.22266,-4.42187c-0.07031,-1.28906 -0.13672,-2.85156 -0.12109,-4.10937h-0.05078c-0.22266,1.25781 -0.52734,2.63281 -0.79687,3.73438l-1.19141,4.66016h-1.24219l-1.12109,-4.53906c-0.30469,-1.15625 -0.61328,-2.58203 -0.81641,-3.85547h-0.04687c-0.01953,1.28906 -0.08984,2.80469 -0.15625,4.16406l-0.20312,4.36719h-1.58203zM35.30078,24.54297h1.82031v9.92578h3.05859v1.53125h-4.87891z"></path></g></g></svg>