<svg xmlns="http://www.w3.org/2000/svg" xmlns:xlink="http://www.w3.org/1999/xlink" viewBox="0,0,256,254.85938" width="48px" height="48px" fill-rule="nonzero"><g fill="#ffffff" fill-rule="nonzero" stroke="none" stroke-width="1" stroke-linecap="butt" stroke-linejoin="miter" stroke-miterlimit="10" stroke-dasharray="" stroke-dashoffset="0" font-family="none" font-weight="none" font-size="none" text-anchor="none" style="mix-blend-mode: normal"><g transform="scale(11.63636,11.63636)"><path d="M9.691,14.26l-3.28,-3.312l3.189,-3.184c-0.264,-0.274 -0.534,-0.56 -0.8,-0.86c-0.91785,-0.99789 -1.46107,-2.28331 -1.537,-3.637l-6.97,6.97c-0.39038,0.3905 -0.39038,1.0235 0,1.414l9.956,9.956c0.21461,0.21526 0.51548,0.32122 0.81762,0.28795c0.30214,-0.03327 0.57275,-0.20215 0.73538,-0.45895c0.769,-1.233 1.645,-3.386 -0.093,-5.124c-1.017,-1.012 -2.009,-2.045 -2.018,-2.052zM12.308,7.629l3.281,3.311l-3.184,3.185c0.264,0.273 0.534,0.56 0.8,0.859c0.91538,0.99932 1.45638,2.28485 1.531,3.638l6.971,-6.971c0.39038,-0.3905 0.39038,-1.0235 0,-1.414l-9.942,-9.937c-0.21569,-0.21925 -0.52028,-0.32704 -0.82587,-0.29228c-0.30559,0.03476 -0.57819,0.2082 -0.73913,0.47028c-0.753,1.248 -1.6,3.408 0.087,5.1c1.021,1.016 2.013,2.044 2.021,2.051z"></path></g></g></svg>