<svg xmlns="http://www.w3.org/2000/svg" xmlns:xlink="http://www.w3.org/1999/xlink" viewBox="0,0,256,256" width="64px" height="64px" fill-rule="nonzero"><g fill="#ffffff" fill-rule="nonzero" stroke="none" stroke-width="1" stroke-linecap="butt" stroke-linejoin="miter" stroke-miterlimit="10" stroke-dasharray="" stroke-dashoffset="0" font-family="none" font-weight="none" font-size="none" text-anchor="none" style="mix-blend-mode: normal"><g transform="scale(0.5,0.5)"><path d="M104,8c-4.41828,0 -8,3.58172 -8,8v480c0,4.41828 3.58172,8 8,8h240c2.12223,0.00088 4.15802,-0.8407 5.66016,-2.33984l64,-64c1.49914,-1.50214 2.34072,-3.53793 2.33984,-5.66016v-416c0,-4.41828 -3.58172,-8 -8,-8zM112,24h288v400h-56c-4.41828,0 -8,3.58172 -8,8v56h-224zM184,136c-4.41828,0 -8,3.58172 -8,8v32c0,4.41828 3.58172,8 8,8h24v16h-24c-4.41828,0 -8,3.58172 -8,8c0,4.41828 3.58172,8 8,8h32c4.41828,0 8,-3.58172 8,-8v-32c0,-4.41828 -3.58172,-8 -8,-8h-24v-16h24c4.41828,0 8,-3.58172 8,-8c0,-4.41828 -3.58172,-8 -8,-8zM240,136c-4.41828,0 -8,3.58172 -8,8v64c0,4.41828 3.58172,8 8,8h32c4.41828,0 8,-3.58172 8,-8c0,-4.41828 -3.58172,-8 -8,-8h-24v-16h16c4.41828,0 8,-3.58172 8,-8c0,-4.41828 -3.58172,-8 -8,-8h-16v-16h24c4.41828,0 8,-3.58172 8,-8c0,-4.41828 -3.58172,-8 -8,-8zM296,136c-4.41828,0 -8,3.58172 -8,8v64c0,4.41828 3.58172,8 8,8h32c4.41828,0 8,-3.58172 8,-8v-64c0,-4.41828 -3.58172,-8 -8,-8zM304,152h16v48h-16zM184,232c-4.41828,0 -8,3.58172 -8,8v24c0,4.41828 3.58172,8 8,8h144c4.41828,0 8,-3.58172 8,-8v-24c0,-4.41828 -3.58172,-8 -8,-8zM192,248h128v8h-128zM184,288c-4.41828,0 -8,3.58172 -8,8c0,4.41828 3.58172,8 8,8h144c4.41828,0 8,-3.58172 8,-8c0,-4.41828 -3.58172,-8 -8,-8zM184,312c-4.41828,0 -8,3.58172 -8,8c0,4.41828 3.58172,8 8,8h144c4.41828,0 8,-3.58172 8,-8c0,-4.41828 -3.58172,-8 -8,-8zM184,336c-4.41828,0 -8,3.58172 -8,8c0,4.41828 3.58172,8 8,8h80c4.41828,0 8,-3.58172 8,-8c0,-4.41828 -3.58172,-8 -8,-8zM288,336c-4.41828,0 -8,3.58172 -8,8c0,4.41828 3.58172,8 8,8h8c4.41828,0 8,-3.58172 8,-8c0,-4.41828 -3.58172,-8 -8,-8zM352,440h36.68945l-36.68945,36.68945z"></path></g></g></svg>