<svg xmlns="http://www.w3.org/2000/svg"  viewBox="0 0 256 256" width="64px" height="64px"><path fill="#3f3679" d="M207.172,242.67H48.828c-0.829,0-1.5,0.672-1.5,1.5s0.671,1.5,1.5,1.5h158.343c0.829,0,1.5-0.672,1.5-1.5 S208,242.67,207.172,242.67z"/><path fill="#3f3679" d="M232.003,242.67h-12.75c-0.829,0-1.5,0.672-1.5,1.5s0.671,1.5,1.5,1.5h12.75c0.829,0,1.5-0.672,1.5-1.5 S232.831,242.67,232.003,242.67z"/><path fill="#3f3679" d="M36.747,242.67h-12.75c-0.829,0-1.5,0.672-1.5,1.5s0.671,1.5,1.5,1.5h12.75c0.829,0,1.5-0.672,1.5-1.5 S37.576,242.67,36.747,242.67z"/><path fill="#f8af23" d="M143.499,110.279l0.004-0.002v-11.63h0c-4.528,2.764-9.838,4.36-15.502,4.36h0 c-5.664,0-10.974-1.596-15.502-4.36h-0.001v11.63l0.004,0.002L128,120.046L143.499,110.279z"/><path fill="#f87023" d="M112.498,98.646L112.498,98.646l-0.001,11.63l0.004,0.002l8.496,5.354v-13.478 C117.962,101.419,115.098,100.233,112.498,98.646z"/><circle cx="98.085" cy="62.695" r="7.744" fill="#f87023"/><circle cx="157.915" cy="62.695" r="7.744" fill="#f8af23"/><path fill="#63bce7" d="M196.034,139.708c-5.192-14.004-17.572-24.09-32.337-26.345l-20.199-3.085L128,120.046l-15.499-9.768 l-20.198,3.085c-14.765,2.255-27.145,12.341-32.337,26.345l-7.34,19.797h75.355h0.037h75.355L196.034,139.708z"/><path fill="#63e2e7" d="M196.034,139.709c-5.192-14.004-17.572-24.091-32.337-26.345l-20.199-3.085l-1.658,1.045l13.357,2.04 c14.765,2.255,27.145,12.341,32.337,26.345l7.34,19.797h8.5L196.034,139.709z"/><path fill="#6377e7" d="M100.803,113.363l13.357-2.04l-1.658-1.045l-20.198,3.085c-14.765,2.255-27.145,12.341-32.337,26.345 l-7.34,19.797h8.5l7.34-19.797C73.658,125.704,86.038,115.618,100.803,113.363z"/><path fill="#f8af23" d="M98.085,42.615V73.09c0,10.789,5.789,20.291,14.413,25.556c4.528,2.764,9.838,4.36,15.502,4.36h0 c5.664,0,10.974-1.596,15.502-4.36c8.625-5.264,14.413-14.767,14.413-25.556V42.615H98.085z"/><path fill="#f87023" d="M106.585,73.09V42.615h-8.5V73.09c0,10.789,5.789,20.291,14.414,25.556c4.528,2.764,9.838,4.36,15.502,4.36h0 c1.442,0,2.861-0.106,4.25-0.306c-4.067-0.585-7.877-1.994-11.252-4.054C112.373,93.382,106.585,83.879,106.585,73.09z"/><circle cx="114.19" cy="67.08" r="2.84" fill="#3f3679"/><circle cx="141.81" cy="67.08" r="2.84" fill="#3f3679"/><polygon fill="#f46275" points="128,120.046 112.501,110.279 99.099,112.325 119.591,126.754"/><polygon fill="#f43075" points="99.099,112.325 119.591,126.754 123.837,123.367 106.542,111.189"/><polygon fill="#f46275" points="128,120.046 143.499,110.279 156.901,112.325 136.409,126.754"/><polygon fill="#9e9e9e" points="136.409,126.754 128,120.046 119.591,126.754 124.622,132.561 119.591,159.505 136.409,159.505 131.273,132.508"/><path fill="#9e9e9e" d="M128,11.83c-19.212,0-34.786,13.783-34.786,30.785c0,5.74,1.78,11.109,4.871,15.708v1.675h1.208h2.808V49.019 c0,0,7.812-0.352,10.838-6.405c0,0,13.691,13.302,30.564,0c0,0,3.782,6.686,9.694,6.686v10.698h3.511h1.208v-1.675 c3.09-4.599,4.871-9.969,4.871-15.708C162.786,25.613,147.212,11.83,128,11.83z"/><path fill="#cecece" d="M128,11.83c-1.44,0-2.856,0.087-4.25,0.237c17.206,1.856,30.536,14.82,30.536,30.548 c0,2.627-0.389,5.17-1.09,7.604v9.78h3.511h1.208v-1.676c3.091-4.599,4.871-9.969,4.871-15.708 C162.786,25.613,147.212,11.83,128,11.83z"/><path fill="#707070" d="M132.25,12.067c-1.394-0.15-2.81-0.237-4.25-0.237c-19.212,0-34.786,13.783-34.786,30.785 c0,5.74,1.78,11.109,4.871,15.708v1.675h1.208h2.807V49.02c0,0,0.134-0.007,0.366-0.03c-0.491-2.057-0.752-4.188-0.752-6.375 C101.714,26.887,115.044,13.923,132.25,12.067z"/><polygon fill="#707070" points="119.591,126.754 124.622,132.561 119.591,159.505 128,159.505 128,120.046"/><rect width="215.67" height="21.075" x="20.165" y="159.505" fill="#9e9e9e"/><rect width="8.5" height="21.075" x="227.335" y="159.505" fill="#cecece"/><rect width="8.5" height="21.075" x="20.165" y="159.505" fill="#707070"/><rect width="195.562" height="48" x="30.219" y="180.58" fill="#f46275"/><rect width="8.5" height="48" x="30.219" y="180.58" fill="#f43075"/><rect width="8.5" height="48" x="217.281" y="180.58" fill="#f48875"/><path fill="#63bce7" d="M62.272,111.785L62.272,111.785c-3.55,0-6.455-2.905-6.455-6.455v0c0-3.55,2.905-6.455,6.455-6.455h0 c3.55,0,6.455,2.905,6.455,6.455v0C68.727,108.881,65.822,111.785,62.272,111.785z"/><path fill="#63bce7" d="M193.728,111.785L193.728,111.785c3.55,0,6.455-2.905,6.455-6.455v0c0-3.55-2.905-6.455-6.455-6.455h0 c-3.55,0-6.455,2.905-6.455,6.455v0C187.273,108.881,190.178,111.785,193.728,111.785z"/><polygon fill="#f48875" points="156.901,112.325 136.409,126.754 132.163,123.367 149.458,111.189"/><path fill="#3f3679" d="M128,81.758c0.829,0,1.5-0.672,1.5-1.5v-8.52c0-0.828-0.671-1.5-1.5-1.5s-1.5,0.672-1.5,1.5v8.52 C126.5,81.086,127.171,81.758,128,81.758z"/><path fill="#3f3679" d="M120.141,85.207c-0.613,0.558-0.657,1.507-0.1,2.119c0.19,0.209,4.313,4.652,10.487,4.652 c0.667,0,1.358-0.052,2.07-0.167c0.818-0.131,1.375-0.901,1.243-1.719c-0.131-0.817-0.901-1.377-1.719-1.242 c-5.674,0.908-9.823-3.503-9.865-3.548C121.699,84.694,120.752,84.65,120.141,85.207z"/><path fill="#3f3679" d="M122.059,61.195c0-0.828-0.671-1.5-1.5-1.5H107.82c-0.829,0-1.5,0.672-1.5,1.5s0.671,1.5,1.5,1.5h12.739 C121.388,62.695,122.059,62.023,122.059,61.195z"/><path fill="#3f3679" d="M135.44,62.695h12.739c0.829,0,1.5-0.672,1.5-1.5s-0.671-1.5-1.5-1.5H135.44c-0.829,0-1.5,0.672-1.5,1.5 S134.612,62.695,135.44,62.695z"/><path fill="#3f3679" d="M235.835,158.005h-19.481V130.83c0-0.35-0.122-0.688-0.345-0.957l-16.143-19.486 c1.135-1.375,1.818-3.138,1.818-5.057c0-4.387-3.569-7.955-7.956-7.955c-4.386,0-7.955,3.568-7.955,7.955s3.569,7.955,7.955,7.955 h0c1.386,0,2.69-0.358,3.826-0.984l15.799,19.07v26.634h-8.936l-6.977-18.818c-5.379-14.507-18.222-24.97-33.517-27.306 l-6.796-1.038c0,0,0,0,0,0l-12.125-1.852v-9.537c8.906-5.779,14.413-15.793,14.413-26.364v-1.284 c4.385-0.72,7.744-4.525,7.744-9.11c0-3.658-2.11-6.887-5.354-8.383c1.622-3.713,2.481-7.676,2.481-11.698 c0-17.802-16.278-32.285-36.286-32.285S91.714,24.813,91.714,42.615c0,4.022,0.859,7.985,2.481,11.697 c-3.21,1.496-5.354,4.765-5.354,8.383c0,4.585,3.359,8.39,7.744,9.11v1.284c0,10.571,5.508,20.585,14.413,26.364v9.537 l-12.125,1.852c0,0,0,0,0,0l-6.796,1.038c-15.295,2.336-28.138,12.799-33.517,27.306l-6.977,18.818h-8.936v-26.634l15.799-19.07 c1.136,0.626,2.44,0.984,3.827,0.984c4.386,0,7.955-3.568,7.955-7.955s-3.569-7.955-7.956-7.955c-4.386,0-7.955,3.568-7.955,7.955 c0,1.919,0.683,3.681,1.818,5.056l-16.143,19.487c-0.223,0.27-0.345,0.607-0.345,0.957v27.175H20.165c-0.829,0-1.5,0.672-1.5,1.5 v21.075c0,0.828,0.671,1.5,1.5,1.5h8.554v46.5c0,0.828,0.671,1.5,1.5,1.5h195.562c0.829,0,1.5-0.672,1.5-1.5v-46.5h8.554 c0.829,0,1.5-0.672,1.5-1.5v-21.075C237.335,158.677,236.664,158.005,235.835,158.005z M193.728,110.285 c-2.732,0-4.955-2.223-4.955-4.955s2.223-4.955,4.956-4.955s4.955,2.223,4.955,4.955S196.46,110.285,193.728,110.285z M62.272,100.375c2.732,0,4.955,2.223,4.955,4.955s-2.223,4.955-4.955,4.955h0c-2.732,0-4.955-2.223-4.955-4.955 S59.54,100.375,62.272,100.375z M194.628,140.229l6.59,17.775h-63.568l-4.766-25.051l4.529-5.073l19.858-13.982l6.199,0.947 C177.689,117.018,189.627,126.744,194.628,140.229z M125.755,131.578l-4.008-4.626l6.252-4.987l6.234,4.973l-4.081,4.571 c-0.311,0.349-0.441,0.821-0.354,1.279l4.798,25.217h-13.2l4.699-25.169C126.18,132.387,126.055,131.924,125.755,131.578z M119.535,124.88l-16.523-11.635l9.163-1.399l13.24,8.344L119.535,124.88z M128,104.506c4.875,0,9.664-1.152,14.002-3.329v8.271 L128,118.273l-14.002-8.824l0-8.271C118.336,103.354,123.124,104.506,128,104.506z M136.465,124.88l-5.88-4.69l13.24-8.344 l9.164,1.399L136.465,124.88z M164.159,62.695c0,2.925-2.024,5.379-4.744,6.053v-8.186c0,0,0-0.364,0-0.563v-1.225 c0.376-0.577,0.726-1.166,1.06-1.76C162.702,58.011,164.159,60.201,164.159,62.695z M128,13.33 c18.354,0,33.286,13.138,33.286,29.285c0,5.234-1.596,10.377-4.616,14.871c-0.166,0.248-0.255,0.539-0.255,0.837v0.176h-1.72 v-9.198c0-0.828-0.671-1.5-1.5-1.5c-4.95,0-8.355-5.867-8.388-5.924c-0.215-0.381-0.587-0.649-1.016-0.733 c-0.43-0.082-0.875,0.022-1.218,0.294c-15.601,12.302-28.07,0.604-28.59,0.102c-0.343-0.332-0.826-0.485-1.296-0.402 c-0.472,0.08-0.877,0.38-1.091,0.808c-2.585,5.171-9.498,5.573-9.564,5.577c-0.801,0.035-1.433,0.696-1.433,1.498v9.479h-1.016 v-0.176c0-0.298-0.089-0.589-0.255-0.837c-3.02-4.494-4.616-9.637-4.616-14.871C94.714,26.468,109.646,13.33,128,13.33z M91.841,62.695c0-2.468,1.479-4.688,3.682-5.685c0.334,0.596,0.686,1.186,1.062,1.764v1.225v8.75 C93.865,68.074,91.841,65.62,91.841,62.695z M99.584,73.09V61.499h2.516c0.829,0,1.5-0.672,1.5-1.5v-9.645 c2.325-0.376,6.921-1.594,9.724-5.486c3.991,2.985,15.862,9.929,29.811-0.099c1.425,1.938,4.408,5.242,8.561,5.911v9.318 c0,0.828,0.671,1.5,1.5,1.5h3.22V73.09c0,9.818-5.248,19.12-13.695,24.275c-4.437,2.709-9.527,4.141-14.72,4.141 c-5.194,0-10.284-1.432-14.721-4.141C104.832,92.21,99.584,82.908,99.584,73.09z M61.372,140.229 c5-13.485,16.939-23.212,31.157-25.384l6.199-0.947l19.849,13.976l4.437,5.121l-4.669,25.009H54.782L61.372,140.229z M224.281,227.08H31.719v-21H188c0.829,0,1.5-0.672,1.5-1.5s-0.671-1.5-1.5-1.5H31.719v-21h192.562V227.08z M234.335,179.08h-8.554 H30.219h-8.554v-7.537H153.25c0.829,0,1.5-0.672,1.5-1.5s-0.671-1.5-1.5-1.5H21.665v-7.538h97.926h16.818h97.926V179.08z"/><path fill="#3f3679" d="M167,171.543h23.25c0.829,0,1.5-0.672,1.5-1.5s-0.671-1.5-1.5-1.5H167c-0.829,0-1.5,0.672-1.5,1.5 S166.171,171.543,167,171.543z"/><path fill="#3f3679" d="M201.875,206.08h16.5c0.829,0,1.5-0.672,1.5-1.5s-0.671-1.5-1.5-1.5h-16.5c-0.829,0-1.5,0.672-1.5,1.5 S201.046,206.08,201.875,206.08z"/></svg>