<svg xmlns="http://www.w3.org/2000/svg" xmlns:xlink="http://www.w3.org/1999/xlink" viewBox="0,0,256,256" width="50px" height="50px" fill-rule="nonzero"><g fill="#ffffff" fill-rule="nonzero" stroke="none" stroke-width="1" stroke-linecap="butt" stroke-linejoin="miter" stroke-miterlimit="10" stroke-dasharray="" stroke-dashoffset="0" font-family="none" font-weight="none" font-size="none" text-anchor="none" style="mix-blend-mode: normal"><g transform="scale(5.12,5.12)"><path d="M9,4c-2.74952,0 -5,2.25048 -5,5v32c0,2.74952 2.25048,5 5,5h32c2.74952,0 5,-2.25048 5,-5v-32c0,-2.74952 -2.25048,-5 -5,-5zM9,6h32c1.66848,0 3,1.33152 3,3v32c0,1.66848 -1.33152,3 -3,3h-32c-1.66848,0 -3,-1.33152 -3,-3v-32c0,-1.66848 1.33152,-3 3,-3zM12,9c-1.64497,0 -3,1.35503 -3,3v24c0,1.64497 1.35503,3 3,3h7c1.64497,0 3,-1.35503 3,-3v-24c0,-1.64497 -1.35503,-3 -3,-3zM31,9c-1.64497,0 -3,1.35503 -3,3v12c0,1.64497 1.35503,3 3,3h7c1.64497,0 3,-1.35503 3,-3v-12c0,-1.64497 -1.35503,-3 -3,-3zM12,11h7c0.56503,0 1,0.43497 1,1v24c0,0.56503 -0.43497,1 -1,1h-7c-0.56503,0 -1,-0.43497 -1,-1v-24c0,-0.56503 0.43497,-1 1,-1zM31,11h7c0.56503,0 1,0.43497 1,1v12c0,0.56503 -0.43497,1 -1,1h-7c-0.56503,0 -1,-0.43497 -1,-1v-12c0,-0.56503 0.43497,-1 1,-1z"></path></g></g></svg>