<svg xmlns="http://www.w3.org/2000/svg" xmlns:xlink="http://www.w3.org/1999/xlink" viewBox="0,0,256,256" width="50px" height="50px" fill-rule="nonzero"><g fill="#ffffff" fill-rule="nonzero" stroke="none" stroke-width="1" stroke-linecap="butt" stroke-linejoin="miter" stroke-miterlimit="10" stroke-dasharray="" stroke-dashoffset="0" font-family="none" font-weight="none" font-size="none" text-anchor="none" style="mix-blend-mode: normal"><g transform="scale(5.12,5.12)"><path d="M0,3v30h16.1875l-2,-2h-12.1875v-26h46v26h-18.1875l2,2h18.1875v-30zM3,6v3h2v-3zM9,6v3h2v-3zM15,6v3h2v-3zM21,6v3h2v-3zM27,6v3h2v-3zM33,6v3h2v-3zM39,6v3h2v-3zM45,6v3h2v-3zM13.78125,21.90625c-0.29297,0.03516 -0.55859,0.19531 -0.72266,0.44531c-0.16016,0.24609 -0.20703,0.55078 -0.12109,0.83594l1.6875,6c0.05859,0.15625 0.15625,0.29688 0.28125,0.40625l18.40625,18.5l0.28125,0.3125c0.01953,0.02344 0.03906,0.04297 0.0625,0.0625c0.03906,0.04688 0.07813,0.08594 0.125,0.125c0.01172,0 0.01953,0 0.03125,0l0.1875,0.21875c1.60156,1.60156 4.21094,1.60156 5.8125,0c1.60156,-1.60156 1.60156,-4.21094 0,-5.8125l-0.21875,-0.21875c-0.04687,-0.05859 -0.09766,-0.10937 -0.15625,-0.15625c-0.01172,-0.01172 -0.01953,-0.01953 -0.03125,-0.03125l-0.3125,-0.28125l-18.5,-18.40625c-0.10937,-0.125 -0.25,-0.22266 -0.40625,-0.28125l-6,-1.6875c-0.13281,-0.03906 -0.26953,-0.04687 -0.40625,-0.03125zM19.3125,25.46875l0.0625,0.03125l18.3125,18.21875l-2.96875,2.96875l-18.21875,-18.3125l-0.03125,-0.0625zM3,27v3h2v-3zM9,27v3h2v-3zM27,27v1l2,2v-3zM33,27v3h2v-3zM39,27v3h2v-3zM45,27v3h2v-3z"></path></g></g></svg>