<svg xmlns="http://www.w3.org/2000/svg" xmlns:xlink="http://www.w3.org/1999/xlink" viewBox="0,0,256,256" width="50px" height="50px" fill-rule="nonzero"><g fill="#f1c43e" fill-rule="nonzero" stroke="none" stroke-width="1" stroke-linecap="butt" stroke-linejoin="miter" stroke-miterlimit="10" stroke-dasharray="" stroke-dashoffset="0" font-family="none" font-weight="none" font-size="none" text-anchor="none" style="mix-blend-mode: normal"><g transform="scale(5.12,5.12)"><path d="M39,2.00586c-2.30475,0 -4.61023,0.87686 -6.36523,2.63086l-5,5c-1.016,1.017 -1.72925,2.221 -2.15625,3.5c0.829,-0.484 1.73069,-0.82309 2.67969,-0.99609c0.255,-0.386 0.55358,-0.75084 0.89258,-1.08984l5,-5c1.365,-1.364 3.15622,-2.04687 4.94922,-2.04687c1.793,0 3.58422,0.68288 4.94922,2.04688c2.729,2.729 2.729,7.16944 0,9.89844l-5,5c-2.73,2.729 -7.17044,2.729 -9.89844,0c-0.58,-0.58 -1.02442,-1.23941 -1.35742,-1.94141l-1.48242,1.48047c0.385,0.669 0.85478,1.303 1.42578,1.875c1.755,1.754 4.05928,2.63086 6.36328,2.63086c2.304,0 4.60828,-0.87686 6.36328,-2.63086l5,-5c3.509,-3.51 3.509,-9.21656 0,-12.72656c-1.755,-1.754 -4.05853,-2.63086 -6.36328,-2.63086zM29.66797,14c-1.691,0 -3.28347,0.65852 -4.48047,1.85352l-9.33203,9.33398c-2.47,2.47 -2.47,6.48703 0,8.95703c1.234,1.234 2.85552,1.85156 4.47852,1.85156c0.081,0 0.16314,-0.00872 0.24414,-0.01172c0.282,-0.653 0.42111,-1.35078 0.41211,-2.05078c-1.318,0.201 -2.7077,-0.19112 -3.7207,-1.20312c-1.689,-1.689 -1.689,-4.43991 0,-6.12891l9.33203,-9.33203c0.819,-0.818 1.90941,-1.26953 3.06641,-1.26953c1.157,0 2.2445,0.45053 3.0625,1.26953c0.818,0.819 1.26953,1.9055 1.26953,3.0625c0,0.224 -0.03145,0.4412 -0.06445,0.6582c0.022,0 0.04345,0.00586 0.06445,0.00586c0.697,0 1.36828,-0.14802 1.98828,-0.41602c0.003,-0.083 0.01172,-0.16505 0.01172,-0.24805c0,-1.691 -0.65947,-3.27956 -1.85547,-4.47656c-1.197,-1.196 -2.78556,-1.85547 -4.47656,-1.85547zM13.12305,25.49414c-1.273,0.427 -2.47333,1.12958 -3.48633,2.14258l-5,5c-3.509,3.51 -3.509,9.21852 0,12.72852c1.755,1.754 4.05928,2.63086 6.36328,2.63086c2.304,0 4.60828,-0.87686 6.36328,-2.63086l5,-5c3.509,-3.511 3.509,-9.21851 0,-12.72852c-0.572,-0.571 -1.206,-1.04078 -1.875,-1.42578l-1.47656,1.47852c0.701,0.333 1.3585,0.78233 1.9375,1.36133c2.729,2.729 2.729,7.16944 0,9.89844l-5,5c-2.73,2.729 -7.17044,2.729 -9.89844,0c-2.729,-2.729 -2.729,-7.16944 0,-9.89844l5,-5c0.342,-0.341 0.70866,-0.64048 1.09766,-0.89648c0.168,-0.924 0.49261,-1.82516 0.97461,-2.66016zM29.91992,26.20703l-3.72266,3.72266c0.285,0.716 0.49505,1.45603 0.62305,2.20703l5.30664,-5.30859c-0.759,-0.13 -1.49903,-0.33609 -2.20703,-0.62109z"></path></g></g></svg>