<svg xmlns="http://www.w3.org/2000/svg" xmlns:xlink="http://www.w3.org/1999/xlink" viewBox="0,0,256,256" width="24px" height="24px" fill-rule="nonzero"><g fill="#ffffff" fill-rule="nonzero" stroke="none" stroke-width="1" stroke-linecap="butt" stroke-linejoin="miter" stroke-miterlimit="10" stroke-dasharray="" stroke-dashoffset="0" font-family="none" font-weight="none" font-size="none" text-anchor="none" style="mix-blend-mode: normal"><g transform="scale(10.66667,10.66667)"><path d="M5,3c-1.105,0 -2,0.895 -2,2v14c0,1.105 0.895,2 2,2h14c1.105,0 2,-0.895 2,-2v-14c0,-1.105 -0.895,-2 -2,-2zM5,5h14v14h-14zM8.41016,7l-1.41016,1.41016l3.58984,3.58984l-3.58984,3.58984l1.41016,1.41016l3.58984,-3.58984l3.58984,3.58984l1.41016,-1.41016l-3.58984,-3.58984l3.58984,-3.58984l-1.41016,-1.41016l-3.58984,3.58984z"></path></g></g></svg>